HIERARCHY
ROOT Hips
{
  OFFSET 265.287 66.7526 -254.649
  CHANNELS 6 Xposition Yposition Zposition Zrotation Xrotation Yrotation
  JOINT LeftUpLeg
  {
    OFFSET 8.64259 1.95398 -2.38835
    CHANNELS 3 Zrotation Xrotation Yrotation
    JOINT LeftLeg
    {
      OFFSET 43.7702 0 0
      CHANNELS 3 Zrotation Xrotation Yrotation
      JOINT LeftFoot
      {
        OFFSET 40.6238 0 0
        CHANNELS 3 Zrotation Xrotation Yrotation
        JOINT LeftToeBase
        {
          OFFSET 12.7242 0 0
          CHANNELS 3 Zrotation Xrotation Yrotation
          End Site
          {
            OFFSET 0 0 0
          }
        }
      }
    }
  }
  JOINT RightUpLeg
  {
    OFFSET -8.2249 1.95398 -2.59336
    CHANNELS 3 Zrotation Xrotation Yrotation
    JOINT RightLeg
    {
      OFFSET 43.5653 0 0
      CHANNELS 3 Zrotation Xrotation Yrotation
      JOINT RightFoot
      {
        OFFSET 40.6238 0 0
        CHANNELS 3 Zrotation Xrotation Yrotation
        JOINT RightToeBase
        {
          OFFSET 12.7242 0 0
          CHANNELS 3 Zrotation Xrotation Yrotation
          End Site
          {
            OFFSET 0 0 0
          }
        }
      }
    }
  }
  JOINT Spine
  {
    OFFSET 0.165834 0.87714 6.61349
    CHANNELS 3 Zrotation Xrotation Yrotation
    JOINT Spine1
    {
      OFFSET 7.38963 1.71661e-005 0
      CHANNELS 3 Zrotation Xrotation Yrotation
      JOINT Spine2
      {
        OFFSET 11.9445 1.14441e-005 0
        CHANNELS 3 Zrotation Xrotation Yrotation
        JOINT Spine3
        {
          OFFSET 14.7254 4.19617e-005 0
          CHANNELS 3 Zrotation Xrotation Yrotation
          JOINT Spine4
          {
            OFFSET 10.9679 0 0
            CHANNELS 3 Zrotation Xrotation Yrotation
            JOINT RightShoulder
            {
              OFFSET 2.46616 -1.6653 3.69651
              CHANNELS 3 Zrotation Xrotation Yrotation
              JOINT RightArm
              {
                OFFSET 13.0012 0 0
                CHANNELS 3 Zrotation Xrotation Yrotation
                JOINT RightForeArm
                {
                  OFFSET 28.7848 1.52588e-005 0
                  CHANNELS 3 Zrotation Xrotation Yrotation
                  JOINT RightHand
                  {
                    OFFSET 26.5688 1.52588e-005 0
                    CHANNELS 3 Zrotation Xrotation Yrotation
                    End Site
                    {
                      OFFSET 0 0 0
                    }
                  }
                }
              }
            }
            JOINT LeftShoulder
            {
              OFFSET 2.38034 -1.29275 -3.7523
              CHANNELS 3 Zrotation Xrotation Yrotation
              JOINT LeftArm
              {
                OFFSET 16.3182 6.10351e-005 0
                CHANNELS 3 Zrotation Xrotation Yrotation
                JOINT LeftForeArm
                {
                  OFFSET 27.0901 0 0
                  CHANNELS 3 Zrotation Xrotation Yrotation
                  JOINT LeftHand
                  {
                    OFFSET 24.5451 1.52588e-005 0
                    CHANNELS 3 Zrotation Xrotation Yrotation
                    End Site
                    {
                      OFFSET 0 0 0
                    }
                  }
                }
              }
            }
            JOINT Neck
            {
              OFFSET 5.0226 -0.0266342 0
              CHANNELS 3 Zrotation Xrotation Yrotation
              JOINT Head
              {
                OFFSET 6.69364 2.86102e-005 0
                CHANNELS 3 Zrotation Xrotation Yrotation
                End Site
                {
                  OFFSET 0 0 0
                }
              }
            }
          }
        }
      }
    }
  }
}
MOTION
Frames:	10
Frame Time:	0.0416667
-18.3979 93.8166 7.88003 104.254 46.4687 79.6993 -178.364 22.3933 88.0447 -16.7014 15.7583 2.48265 40.9135 -6.42995 3.1658 58.1441 -9.73843 -4.43747 177.927 -10.0116 94.8853 -45.0473 -7.46622 -2.98584 58.4393 3.48726 17.4699 37.5251 -1.19012 -2.45282 0.807041 7.44335 -89.9047 11.9856 1.6497 0.02367 0.315609 1.64915 -0.0489809 -22.2265 1.56628 0.518476 -2.21388 1.56627 0.518473 102.905 -48.0952 -80.9827 27.9508 -17.6591 8.17948 -0.226944 -1.16335 -45.6429 -13.0487 0.115358 -6.43104 -82.9894 -48.5111 88.9186 -24.4261 35.5605 23.7724 22.5288 9.77453 -52.0899 5.54689 -0.261966 -6.78429 5.69433 -1.23907 -1.40282 -19.4187 -1.30285 2.67274 
-3.77141 90.9288 -7.00087 106.817 43.0975 80.0582 -176.351 23.3803 89.3472 -27.8833 21.5926 1.81 45.5231 -5.08442 8.68126 45.031 -5.10953 -0.598417 176.876 -7.22198 92.4342 -68.6759 -4.69787 -3.74531 54.8388 2.70433 10.5806 41.5247 -1.83853 -4.46923 0.914635 7.67973 -90.1251 11.5167 1.7608 -0.441325 -0.153192 1.73968 -0.518426 -22.6977 1.81202 0.108453 -2.68505 1.81204 0.108454 102.587 -47.819 -81.4901 27.7155 -19.1501 4.97866 -5.79194 -5.0364 -50.2198 -11.4176 0.141539 -6.71585 -83.2132 -45.856 88.3025 -28.3157 35.4638 28.9839 25.8401 9.6067 -54.5913 5.7229 -0.286619 -7.14453 7.70629 -0.187475 -0.944231 -20.3128 -0.488113 3.31487 
8.94102 86.5079 -19.9958 111.62 41.6592 72.1179 -175.99 22.4746 83.4666 -57.0245 20.4001 0.370054 63.8911 5.89372 21.9285 40.7432 -3.69449 -1.75958 177.238 8.76073 86.8821 -92.6735 -7.52607 -4.575 56.623 0.630782 7.27066 48.0464 -2.75316 0.423432 0.268408 8.56808 -89.4301 9.73279 0.793034 1.06777 -1.93831 0.839218 1.03184 -24.4707 0.435458 1.25671 -4.45804 0.435447 1.25671 101.841 -50.9279 -82.6659 29.5927 -12.1126 0.600154 -7.503 -9.63226 -45.7275 -16.792 -0.450957 -2.10999 -83.5362 -49.4878 88.1786 -12.6197 31.681 9.49101 21.8124 14.9424 -47.0405 4.34788 -0.187025 -6.01326 11.709 1.13044 -5.39617 -17.7132 1.33196 8.63551 
20.9192 88.0537 -31.4938 112.625 43.7154 73.511 -176.312 12.6343 86.5363 -61.4427 25.3745 1.53395 66.6954 8.83895 25.934 49.6026 -6.31099 1.06645 176.7 24.3451 89.5016 -82.0866 -5.32922 -3.06597 61.6992 0.0957646 12.8404 51.1618 -2.98664 2.87679 -0.304299 8.5853 -89.6505 9.70572 -0.448463 0.730318 -1.96543 -0.415888 0.749333 -24.4998 -0.647223 0.561779 -4.48718 -0.647235 0.561777 102.135 -52.0513 -82.2126 31.2953 -9.64749 5.79475 -5.17482 -11.8523 -38.5856 -21.6393 -0.940089 -0.178639 -83.6179 -51.574 88.2696 -5.01644 21.6004 -8.67685 38.4735 28.8498 -53.2524 3.31465 0.0927293 -0.858018 7.04626 2.78209 -5.22979 -18.4562 2.51343 9.73637 
32.7167 92.1578 -42.7221 113.735 49.4371 73.7307 179.01 7.59175 88.9991 -63.3117 22.7748 4.31158 52.2953 -1.58767 8.82608 52.6318 -7.10605 1.92662 176.442 25.3733 89.2505 -43.8741 -6.1041 -0.675444 59.329 3.49346 14.7069 53.8871 -3.36822 2.39508 -0.869678 8.36839 -89.9623 10.1392 -1.71569 0.219653 -1.53057 -1.70437 0.294972 -24.075 -1.70235 -0.306295 -4.06231 -1.70237 -0.306301 101.829 -51.2987 -82.6835 30.5235 -8.33944 16.0676 -6.68849 -14.4206 -36.7989 -16.0683 -0.49263 -1.62512 -82.9655 -50.0122 89.0967 -4.20356 22.6325 -13.7676 25.9384 6.4572 -58.3589 9.67089 0.00628072 -3.51897 4.13723 3.02555 -5.05178 -18.8204 2.58956 9.58984 
45.3821 91.2619 -54.9233 116.042 51.1425 70.7262 175.356 7.45326 87.5036 -72.0208 14.8808 4.5807 53.4163 -0.171642 10.1613 47.8686 -5.78899 1.43154 176.634 22.2309 87.6663 -28.0444 -5.26197 0.32466 54.1354 6.61514 17.5603 53.0905 -3.52033 -0.231475 -0.745164 8.23641 -89.979 10.4017 -1.47487 0.174961 -1.26845 -1.46574 0.239716 -23.81 -1.45927 -0.276478 -3.79741 -1.45925 -0.276482 101.253 -48.2856 -83.6165 30.7417 -7.86468 25.6651 -7.41974 -14.1749 -37.9856 -12.3361 -0.241022 -3.04938 -82.9556 -48.9963 89.0174 0.52147 26.0775 -12.1246 14.8492 -14.2209 -82.9895 12.8841 -0.339975 -6.03611 1.27432 1.90688 -3.44978 -17.1283 1.46686 7.92366 
56.7182 86.9422 -65.5651 123.44 48.5714 68.2227 176.155 11.8973 90.2242 -85.7213 10.2402 3.22823 60.2081 5.16857 18.4084 46.8765 -5.59303 -0.264351 173.412 24.0059 91.7112 -52.776 -16.7903 1.65619 51.24 6.65289 8.23973 38.2162 -1.33945 -0.809956 -0.231525 8.92452 -90.4903 9.02119 -0.680687 -0.923609 -2.64989 -0.720685 -0.892761 -25.183 -0.371633 -1.08546 -5.1703 -0.371659 -1.08547 100.552 -47.8412 -84.7492 25.1134 -8.40316 20.5622 -7.96511 -19.5498 -33.7101 -12.3503 -0.400749 -1.45808 -83.1926 -51.1184 88.8584 -2.19578 21.6859 -7.5069 18.8284 -16.0683 -97.1118 25.6115 0.520864 -1.91664 3.0984 1.03921 -1.26727 -14.8568 0.635046 6.04593 
66.5005 87.1714 -74.8477 126.034 51.6569 68.6309 173.163 20.6906 91.6572 -79.5662 11.1354 4.1566 64.7036 7.18163 17.2779 47.4233 -5.59926 2.08161 169.646 16.008 94.7426 -58.8334 -19.0801 4.28311 62.928 -2.25955 -5.74652 44.0997 -2.17792 1.92482 -0.373734 9.0606 -90.8922 8.74084 -1.14162 -1.69111 -2.93069 -1.21495 -1.63925 -25.458 -0.580739 -1.95594 -5.44535 -0.580723 -1.95594 101.438 -50.6901 -83.2907 18.0791 -3.67652 2.42603 -5.60226 -27.0914 -20.9742 -9.16316 -0.560446 1.91932 -83.3189 -52.4582 88.7968 -11.5057 21.5765 -5.48105 31.1419 -5.50977 -74.6357 24.5846 0.754834 -0.81734 1.37852 0.32462 -3.40743 -14.0807 0.151116 7.36602 
74.8553 91.1182 -83.021 119.552 48.5419 71.3468 178.839 21.0381 87.8251 -46.4945 13.5851 3.54033 61.4489 4.02699 13.0725 50.9112 -6.44038 4.01591 175.184 7.5529 96.0471 -53.8403 -10.4873 0.250502 66.5424 -2.58159 2.48238 46.9826 -2.61784 -0.0155226 0.0634213 8.77737 -90.4798 9.31957 -0.0888966 -0.94658 -2.35167 -0.130455 -0.941763 -24.8845 0.199698 -0.929542 -4.87182 0.199709 -0.929537 101.254 -51.0866 -83.5709 20.2008 -5.05362 -5.79796 -5.02144 -19.7501 -24.1576 -11.7 -0.617219 0.984035 -83.8416 -52.9662 88.0806 -16.3076 22.5703 -2.94216 45.9421 20.3046 -62.3803 -2.86842 -0.0782803 -1.44544 2.27795 0.0786121 -5.29506 -15.3732 0.081263 8.05268 
83.6766 93.5134 -92.1921 112.443 46.876 77.9861 -178.442 16.1512 88.6534 -15.0672 20.1358 3.23421 50.1613 -2.50346 6.61837 51.2029 -6.49934 4.65074 179.487 -0.640021 98.7125 -44.9016 -3.89644 -1.89061 69.1758 -2.23729 8.76997 47.0755 -2.73473 -1.85387 0.19783 8.15896 -90.4482 10.5556 0.188169 -0.902688 -1.11566 0.14825 -0.910091 -23.6488 0.450764 -0.80441 -3.63618 0.450757 -0.804409 101.489 -50.0308 -83.2193 21.3759 -13.5636 -8.47701 -9.41374 -14.3443 -40.7448 -9.89149 -0.218168 -2.88508 -85.2605 -52.442 85.937 -19.7196 30.5607 4.24593 45.2042 35.4636 -58.145 -5.33629 -0.159902 -1.76027 2.0931 0.678141 -4.7225 -15.8046 0.515482 8.33814 
